<svg width="67" height="26" viewBox="0 0 67 26" fill="none" xmlns="http://www.w3.org/2000/svg">
<path d="M28.75 13.7031C28.75 12.3854 29.0547 11.3385 29.6641 10.5625C30.2734 9.78125 31.0807 9.39062 32.0859 9.39062C33.1172 9.39062 33.9219 9.75521 34.5 10.4844L34.5703 9.54688H35.8906V17.7969C35.8906 18.8906 35.5651 19.7526 34.9141 20.3828C34.2682 21.013 33.3984 21.3281 32.3047 21.3281C31.6953 21.3281 31.099 21.1979 30.5156 20.9375C29.9323 20.6771 29.487 20.3203 29.1797 19.8672L29.9297 19C30.5495 19.7656 31.3073 20.1484 32.2031 20.1484C32.9062 20.1484 33.4531 19.9505 33.8438 19.5547C34.2396 19.1589 34.4375 18.6016 34.4375 17.8828V17.1562C33.8594 17.8229 33.0703 18.1562 32.0703 18.1562C31.0807 18.1562 30.2786 17.7578 29.6641 16.9609C29.0547 16.1641 28.75 15.0781 28.75 13.7031ZM30.2031 13.8672C30.2031 14.8203 30.3984 15.5703 30.7891 16.1172C31.1797 16.6589 31.7266 16.9297 32.4297 16.9297C33.3411 16.9297 34.0104 16.5156 34.4375 15.6875V11.8281C33.9948 11.0208 33.3307 10.6172 32.4453 10.6172C31.7422 10.6172 31.1927 10.8906 30.7969 11.4375C30.401 11.9844 30.2031 12.7943 30.2031 13.8672ZM43.2969 17.1641C42.7344 17.8255 41.9089 18.1562 40.8203 18.1562C39.9193 18.1562 39.2318 17.8958 38.7578 17.375C38.2891 16.849 38.0521 16.0729 38.0469 15.0469V9.54688H39.4922V15.0078C39.4922 16.2891 40.013 16.9297 41.0547 16.9297C42.1589 16.9297 42.8932 16.5182 43.2578 15.6953V9.54688H44.7031V18H43.3281L43.2969 17.1641ZM48.4766 18H47.0312V9.54688H48.4766V18ZM46.9141 7.30469C46.9141 7.07031 46.9844 6.8724 47.125 6.71094C47.2708 6.54948 47.4844 6.46875 47.7656 6.46875C48.0469 6.46875 48.2604 6.54948 48.4062 6.71094C48.5521 6.8724 48.625 7.07031 48.625 7.30469C48.625 7.53906 48.5521 7.73438 48.4062 7.89062C48.2604 8.04688 48.0469 8.125 47.7656 8.125C47.4844 8.125 47.2708 8.04688 47.125 7.89062C46.9844 7.73438 46.9141 7.53906 46.9141 7.30469ZM53.6328 12.6328L55.5078 9.54688H57.1953L54.4297 13.7266L57.2812 18H55.6094L53.6562 14.8359L51.7031 18H50.0234L52.875 13.7266L50.1094 9.54688H51.7812L53.6328 12.6328ZM65.9297 7.4375L61.2188 18H59.7031L64.3984 7.8125H58.2422V6.625H65.9297V7.4375Z" fill="#C4C4CC"/>
<path d="M7.999 5.16653C3.582 5.16653 0 8.76253 0 13.1985C0 16.7465 2.292 19.7565 5.472 20.8195C5.872 20.8935 6.018 20.6455 6.018 20.4325C6.018 20.2415 6.011 19.7365 6.007 19.0665C3.782 19.5515 3.312 17.9895 3.312 17.9895C2.949 17.0615 2.424 16.8145 2.424 16.8145C1.697 16.3165 2.478 16.3265 2.478 16.3265C3.281 16.3835 3.703 17.1545 3.703 17.1545C4.417 18.3815 5.576 18.0275 6.032 17.8215C6.104 17.3025 6.311 16.9485 6.54 16.7475C4.764 16.5445 2.896 15.8555 2.896 12.7785C2.896 11.9015 3.208 11.1845 3.72 10.6225C3.637 10.4195 3.363 9.60253 3.798 8.49753C3.798 8.49753 4.47 8.28153 5.998 9.32053C6.636 9.14253 7.32 9.05353 8.001 9.05053C8.68 9.05453 9.365 9.14253 10.004 9.32153C11.531 8.28253 12.202 8.49853 12.202 8.49853C12.638 9.60453 12.364 10.4205 12.282 10.6235C12.795 11.1855 13.104 11.9025 13.104 12.7795C13.104 15.8645 11.234 16.5435 9.452 16.7425C9.739 16.9905 9.995 17.4805 9.995 18.2295C9.995 19.3035 9.985 20.1695 9.985 20.4325C9.985 20.6475 10.129 20.8975 10.535 20.8185C13.71 19.7545 16 16.7455 16 13.1985C16 8.76253 12.418 5.16653 7.999 5.16653Z" fill="#C4C4CC"/>
</svg>
